<svg width="21" height="27" viewBox="0 0 21 27" fill="none" xmlns="http://www.w3.org/2000/svg">
<path fill-rule="evenodd" clip-rule="evenodd" d="M18.375 18.9V11.475C18.375 7.3305 16.8919 3.861 13.125 2.943V0H7.875V2.943C4.12125 3.861 2.625 7.317 2.625 11.475V18.9L0 20.25V22.95H21V20.25L18.375 18.9ZM10.5 27C11.9438 27 13.125 25.785 13.125 24.3H7.875C7.875 25.785 9.05625 27 10.5 27ZM5.25 20.25H15.75V11.475C15.75 8.127 14.4375 5.0625 10.5 5.0625C6.5625 5.0625 5.25 8.127 5.25 11.475V20.25Z" fill="#175FA4"/>
</svg>
