<svg width="22" height="27" viewBox="0 0 22 27" fill="none" xmlns="http://www.w3.org/2000/svg">
<path d="M0.677002 5.83241V24.7842C0.677002 25.6099 1.33088 26.6154 2.13594 26.6154H19.695C20.4979 26.6154 21.2924 25.6099 21.2924 24.7842V5.83241H0.677002ZM10.9635 20.8725C7.86595 20.8725 5.35458 18.2921 5.35458 15.1078C5.35458 11.9235 7.86595 9.34305 10.9635 9.34305C14.0611 9.34305 16.5725 11.9235 16.5725 15.1078C16.5725 18.2927 14.0611 20.8725 10.9635 20.8725ZM19.695 0.215393H2.13594C1.33088 0.215393 0.677002 0.795631 0.677002 1.62246V4.70901H21.2924V1.62246C21.2924 0.795631 20.4979 0.215393 19.695 0.215393ZM7.5488 3.58561H1.7342V1.3388H7.5488V3.58561ZM17.6694 3.42833C17.0091 3.42833 16.4758 2.87842 16.4758 2.19932C16.4758 1.52135 17.0091 0.971444 17.6694 0.971444C18.3296 0.971444 18.8645 1.52135 18.8645 2.19932C18.864 2.87786 18.3296 3.42833 17.6694 3.42833Z" fill="#39A6DC"/>
</svg>
