<svg width="20" height="14" viewBox="0 0 20 14" fill="none" xmlns="http://www.w3.org/2000/svg">
<path d="M18.9529 0H1.04708C0.47125 0 0 0.517573 0 1.02938C0 1.54119 0.47125 2.05835 1.04708 2.05835H1.3V4.11711H18.7254V2.05835H18.9529C19.5292 2.05835 20 1.54119 20 1.02938C20 0.517573 19.5292 0 18.9529 0ZM10 3.09638C9.71083 3.09638 9.47667 2.85798 9.47667 2.5644C9.47667 2.27082 9.71083 2.03241 10 2.03241C10.2896 2.03241 10.5233 2.27082 10.5233 2.5644C10.5233 2.85798 10.2896 3.09638 10 3.09638ZM1.3 8.23423H18.7254V4.94103H1.3V8.23423ZM10 6.02147C10.2896 6.02147 10.5233 6.25946 10.5233 6.55304C10.5233 6.84703 10.2896 7.08503 10 7.08503C9.71083 7.08503 9.47667 6.84703 9.47667 6.55304C9.47625 6.25946 9.71083 6.02147 10 6.02147ZM1.3 11.0741V13.468C1.3 13.7604 1.33708 14 1.625 14H3.71833C4.00625 14 4.13667 13.7604 4.13667 13.468V11.9404H15.8887V13.468C15.8887 13.7604 15.9937 14 16.2812 14H18.375C18.6621 14 18.725 13.7604 18.725 13.468V9.05856H1.3V11.0741ZM10 10.0105C10.2896 10.0105 10.5233 10.2489 10.5233 10.5421C10.5233 10.8365 10.2896 11.0737 10 11.0737C9.71083 11.0737 9.47667 10.8365 9.47667 10.5421C9.47625 10.2493 9.71083 10.0105 10 10.0105Z" fill="#39A6DC"/>
</svg>
