<svg width="38" height="35" viewBox="0 0 38 35" fill="none" xmlns="http://www.w3.org/2000/svg">
<path d="M37.0806 7.17255C36.491 5.76897 35.6409 4.49705 34.5778 3.42801C33.5139 2.35578 32.2595 1.50369 30.8829 0.918079C29.4555 0.308428 27.9244 -0.003626 26.3787 3.17873e-05C24.2102 3.17873e-05 22.0944 0.610555 20.2558 1.76377C19.8159 2.03963 19.3981 2.34263 19.0022 2.67277C18.6063 2.34263 18.1884 2.03963 17.7486 1.76377C15.9099 0.610555 13.7942 3.17873e-05 11.6256 3.17873e-05C10.0641 3.17873e-05 8.55098 0.307555 7.12142 0.918079C5.74024 1.50599 4.49542 2.35168 3.42655 3.42801C2.36206 4.49585 1.51172 5.76806 0.923717 7.17255C0.312304 8.63329 0 10.1845 0 11.7809C0 13.2868 0.299108 14.8561 0.892926 16.4525C1.38997 17.7866 2.10256 19.1705 3.01308 20.5679C4.45583 22.7793 6.43963 25.0858 8.90287 27.4239C12.9848 31.2995 17.0272 33.9768 17.1987 34.0853L18.2412 34.7728C18.7031 35.0758 19.2969 35.0758 19.7587 34.7728L20.8012 34.0853C20.9728 33.9723 25.0107 31.2995 29.0971 27.4239C31.5603 25.0858 33.5441 22.7793 34.9869 20.5679C35.8974 19.1705 36.6144 17.7866 37.107 16.4525C37.7008 14.8561 38 13.2868 38 11.7809C38.0044 10.1845 37.692 8.63329 37.0806 7.17255ZM19.0022 31.1955C19.0022 31.1955 3.34298 20.8799 3.34298 11.7809C3.34298 7.17255 7.05104 3.43705 11.6256 3.43705C14.8411 3.43705 17.6298 5.28219 19.0022 7.97754C20.3746 5.28219 23.1633 3.43705 26.3787 3.43705C30.9533 3.43705 34.6614 7.17255 34.6614 11.7809C34.6614 20.8799 19.0022 31.1955 19.0022 31.1955Z" fill="#175FA4"/>
</svg>
