<svg width="31" height="38" viewBox="0 0 31 38" fill="none" xmlns="http://www.w3.org/2000/svg">
<path fill-rule="evenodd" clip-rule="evenodd" d="M5 3.6C5 2.16406 6.16406 1 7.6 1H22.6766C24.1126 1 25.2766 2.16406 25.2766 3.6V18.6766C25.2766 20.1125 24.1126 21.2766 22.6766 21.2766H7.6C6.16406 21.2766 5 20.1125 5 18.6766V3.6Z" stroke="black" stroke-width="2" stroke-linecap="round" stroke-linejoin="round"/>
<path d="M5 7.75885H25.2766" stroke="black" stroke-width="2" stroke-linecap="round" stroke-linejoin="round"/>
<path d="M11.7589 21.2766V7.75885" stroke="black" stroke-width="2" stroke-linecap="round" stroke-linejoin="round"/>
<path d="M7.52546 31.4471V37.7021H6.49946V34.9661H3.55646V37.7021H2.53046V31.4471H3.55646V34.1291H6.49946V31.4471H7.52546ZM11.0272 37.7831C10.5592 37.7831 10.1362 37.6781 9.75816 37.4681C9.38016 37.2521 9.08316 36.9521 8.86716 36.5681C8.65116 36.1781 8.54316 35.7281 8.54316 35.2181C8.54316 34.7141 8.65416 34.2671 8.87616 33.8771C9.09816 33.4871 9.40116 33.1871 9.78516 32.9771C10.1692 32.7671 10.5982 32.6621 11.0722 32.6621C11.5462 32.6621 11.9752 32.7671 12.3592 32.9771C12.7432 33.1871 13.0462 33.4871 13.2682 33.8771C13.4902 34.2671 13.6012 34.7141 13.6012 35.2181C13.6012 35.7221 13.4872 36.1691 13.2592 36.5591C13.0312 36.9491 12.7192 37.2521 12.3232 37.4681C11.9332 37.6781 11.5012 37.7831 11.0272 37.7831ZM11.0272 36.8921C11.2912 36.8921 11.5372 36.8291 11.7652 36.7031C11.9992 36.5771 12.1882 36.3881 12.3322 36.1361C12.4762 35.8841 12.5482 35.5781 12.5482 35.2181C12.5482 34.8581 12.4792 34.5551 12.3412 34.3091C12.2032 34.0571 12.0202 33.8681 11.7922 33.7421C11.5642 33.6161 11.3182 33.5531 11.0542 33.5531C10.7902 33.5531 10.5442 33.6161 10.3162 33.7421C10.0942 33.8681 9.91716 34.0571 9.78516 34.3091C9.65316 34.5551 9.58716 34.8581 9.58716 35.2181C9.58716 35.7521 9.72216 36.1661 9.99216 36.4601C10.2682 36.7481 10.6132 36.8921 11.0272 36.8921ZM20.6184 32.6621C21.0084 32.6621 21.3564 32.7431 21.6624 32.9051C21.9744 33.0671 22.2174 33.3071 22.3914 33.6251C22.5714 33.9431 22.6614 34.3271 22.6614 34.7771V37.7021H21.6444V34.9301C21.6444 34.4861 21.5334 34.1471 21.3114 33.9131C21.0894 33.6731 20.7864 33.5531 20.4024 33.5531C20.0184 33.5531 19.7124 33.6731 19.4844 33.9131C19.2624 34.1471 19.1514 34.4861 19.1514 34.9301V37.7021H18.1344V34.9301C18.1344 34.4861 18.0234 34.1471 17.8014 33.9131C17.5794 33.6731 17.2764 33.5531 16.8924 33.5531C16.5084 33.5531 16.2024 33.6731 15.9744 33.9131C15.7524 34.1471 15.6414 34.4861 15.6414 34.9301V37.7021H14.6154V32.7431H15.6414V33.3101C15.8094 33.1061 16.0224 32.9471 16.2804 32.8331C16.5384 32.7191 16.8144 32.6621 17.1084 32.6621C17.5044 32.6621 17.8584 32.7461 18.1704 32.9141C18.4824 33.0821 18.7224 33.3251 18.8904 33.6431C19.0404 33.3431 19.2744 33.1061 19.5924 32.9321C19.9104 32.7521 20.2524 32.6621 20.6184 32.6621ZM28.512 35.1011C28.512 35.2871 28.5 35.4551 28.476 35.6051H24.687C24.717 36.0011 24.864 36.3191 25.128 36.5591C25.392 36.7991 25.716 36.9191 26.1 36.9191C26.652 36.9191 27.042 36.6881 27.27 36.2261H28.377C28.227 36.6821 27.954 37.0571 27.558 37.3511C27.168 37.6391 26.682 37.7831 26.1 37.7831C25.626 37.7831 25.2 37.6781 24.822 37.4681C24.45 37.2521 24.156 36.9521 23.94 36.5681C23.73 36.1781 23.625 35.7281 23.625 35.2181C23.625 34.7081 23.727 34.2611 23.931 33.8771C24.141 33.4871 24.432 33.1871 24.804 32.9771C25.182 32.7671 25.614 32.6621 26.1 32.6621C26.568 32.6621 26.985 32.7641 27.351 32.9681C27.717 33.1721 28.002 33.4601 28.206 33.8321C28.41 34.1981 28.512 34.6211 28.512 35.1011ZM27.441 34.7771C27.435 34.3991 27.3 34.0961 27.036 33.8681C26.772 33.6401 26.445 33.5261 26.055 33.5261C25.701 33.5261 25.398 33.6401 25.146 33.8681C24.894 34.0901 24.744 34.3931 24.696 34.7771H27.441Z" fill="#140F26"/>
</svg>
