<svg width="28" height="24" viewBox="0 0 28 24" fill="none" xmlns="http://www.w3.org/2000/svg">
<path d="M19.4655 22V19.7795C19.4655 17.3269 17.432 15.3386 14.9236 15.3386H5.83975C3.33133 15.3386 1.29785 17.3269 1.29785 19.7795V22" stroke="black" stroke-width="2.5" stroke-linecap="round" stroke-linejoin="round"/>
<path fill-rule="evenodd" clip-rule="evenodd" d="M10.3817 10.8976C12.8902 10.8976 14.9237 8.90928 14.9237 6.4566C14.9237 4.00392 12.8902 2.01562 10.3817 2.01562C7.87332 2.01562 5.83984 4.00392 5.83984 6.4566C5.83984 8.90928 7.87332 10.8976 10.3817 10.8976Z" stroke="black" stroke-width="2.5" stroke-linecap="round" stroke-linejoin="round"/>
<path d="M26.2782 22V19.7795C26.2767 17.7557 24.8759 15.9889 22.8718 15.4829" stroke="black" stroke-width="2.5" stroke-linecap="round" stroke-linejoin="round"/>
<path d="M18.3301 2.15997C20.3398 2.6631 21.7454 4.43374 21.7454 6.46216C21.7454 8.49059 20.3398 10.2612 18.3301 10.7644" stroke="black" stroke-width="2.5" stroke-linecap="round" stroke-linejoin="round"/>
</svg>
