<svg width="31" height="8" viewBox="0 0 31 8" fill="none" xmlns="http://www.w3.org/2000/svg">
<path fill-rule="evenodd" clip-rule="evenodd" d="M0.479004 4.10002C0.479004 1.97857 2.15993 0.212524 4.28978 0.212524C6.41963 0.212524 8.10055 1.97857 8.10055 4.10002C8.10055 6.22147 6.41963 7.98752 4.28978 7.98752C2.15993 7.98752 0.479004 6.22147 0.479004 4.10002ZM4.28978 2.21252C3.31493 2.21252 2.479 3.03203 2.479 4.10002C2.479 5.16802 3.31493 5.98752 4.28978 5.98752C5.26463 5.98752 6.10055 5.16802 6.10055 4.10002C6.10055 3.03203 5.26463 2.21252 4.28978 2.21252ZM11.7222 4.10002C11.7222 1.97857 13.4031 0.212524 15.5329 0.212524C17.6628 0.212524 19.3437 1.97857 19.3437 4.10002C19.3437 6.22147 17.6628 7.98752 15.5329 7.98752C13.4031 7.98752 11.7222 6.22147 11.7222 4.10002ZM15.5329 2.21252C14.5581 2.21252 13.7222 3.03203 13.7222 4.10002C13.7222 5.16802 14.5581 5.98752 15.5329 5.98752C16.5078 5.98752 17.3437 5.16802 17.3437 4.10002C17.3437 3.03203 16.5078 2.21252 15.5329 2.21252ZM22.9651 4.10002C22.9651 1.97857 24.646 0.212524 26.7759 0.212524C28.9057 0.212524 30.5866 1.97857 30.5866 4.10002C30.5866 6.22147 28.9057 7.98752 26.7759 7.98752C24.646 7.98752 22.9651 6.22147 22.9651 4.10002ZM26.7759 2.21252C25.801 2.21252 24.9651 3.03203 24.9651 4.10002C24.9651 5.16801 25.801 5.98752 26.7759 5.98752C27.7507 5.98752 28.5866 5.16801 28.5866 4.10002C28.5866 3.03203 27.7507 2.21252 26.7759 2.21252Z" fill="#175FA4"/>
</svg>
