<svg width="27" height="25" viewBox="0 0 27 25" fill="none" xmlns="http://www.w3.org/2000/svg">
<path d="M25.0743 14.0766H22.5669V5.42332L12.6274 14.5091L2.50743 5.39517V20.475H16.2983V23.0344H1.25371C0.921209 23.0344 0.602322 22.8996 0.367204 22.6596C0.132087 22.4196 0 22.0941 0 21.7547V1.27969C0 0.940294 0.132087 0.6148 0.367204 0.374812C0.602322 0.134824 0.921209 0 1.25371 0H23.8206C24.1531 0 24.472 0.134824 24.7071 0.374812C24.9422 0.6148 25.0743 0.940294 25.0743 1.27969V14.0766ZM3.14808 2.55938L12.6136 11.0847L21.9425 2.55938H3.14808ZM24.3396 20.475L27 23.1892L25.226 25L22.5669 22.2845L19.9077 25L18.1337 23.1892L20.7941 20.475L18.1337 17.7608L19.9077 15.95L22.5669 18.6655L25.226 15.95L27 17.7608L24.3396 20.475Z" fill="#FF8181"/>
</svg>
