<svg width="20" height="18" viewBox="0 0 20 18" fill="none" xmlns="http://www.w3.org/2000/svg">
<path d="M17.2253 0L15.7368 1.55536C17.1274 3.01063 17.8947 4.94439 17.8947 7.00024C17.8947 9.05609 17.1274 10.9898 15.7368 12.4451L17.2253 14.0005C19.0147 12.1294 20 9.64348 20 7.00024C20 4.357 19.0147 1.87106 17.2253 0Z" fill="#175FA4"/>
<path d="M14.2473 3.11073L12.7589 4.6683C13.3558 5.28978 13.6842 6.11806 13.6842 7.00024C13.6842 7.88242 13.3558 8.7107 12.7589 9.33219L14.2473 10.8898C15.241 9.85138 15.7894 8.47091 15.7894 7.00024C15.7894 5.52958 15.241 4.14911 14.2473 3.11073Z" fill="#175FA4"/>
<path fill-rule="evenodd" clip-rule="evenodd" d="M10.5263 5.90028C10.5263 8.33028 8.6412 10.3002 6.31579 10.3002C3.99038 10.3002 2.10526 8.33028 2.10526 5.90028C2.10526 3.47028 3.99038 1.50038 6.31579 1.50038C8.6412 1.50038 10.5263 3.47028 10.5263 5.90028ZM8.42105 5.90028C8.42105 7.11528 7.47849 8.10023 6.31579 8.10023C5.15308 8.10023 4.21053 7.11528 4.21053 5.90028C4.21053 4.68528 5.15308 3.70033 6.31579 3.70033C7.47849 3.70033 8.42105 4.68528 8.42105 5.90028Z" fill="#175FA4"/>
<path d="M10.5263 18H12.6316C12.6316 14.355 9.8039 11.4002 6.31579 11.4002C2.82767 11.4002 0 14.355 0 18H2.10526C2.10526 15.57 3.99038 13.6001 6.31579 13.6001C8.6412 13.6001 10.5263 15.57 10.5263 18Z" fill="#175FA4"/>
</svg>
