<svg width="22" height="19" viewBox="0 0 22 19" fill="none" xmlns="http://www.w3.org/2000/svg">
<path d="M20.0461 6.75359L18.6354 2.52134C18.4307 1.90515 18.0371 1.36913 17.5104 0.98943C16.9837 0.609732 16.3508 0.405674 15.7015 0.406251H6.29853C5.64924 0.405674 5.01629 0.609732 4.4896 0.98943C3.96291 1.36913 3.56927 1.90515 3.36463 2.52134L1.95387 6.75359C1.57873 6.91057 1.25836 7.17493 1.03304 7.51347C0.807716 7.852 0.6875 8.24959 0.6875 8.65625V13.8125C0.6875 14.5736 1.10413 15.2315 1.71875 15.5893V17.9375C1.71875 18.211 1.8274 18.4733 2.0208 18.6667C2.21419 18.8601 2.4765 18.9688 2.75 18.9688H3.78125C4.05475 18.9688 4.31706 18.8601 4.51045 18.6667C4.70385 18.4733 4.8125 18.211 4.8125 17.9375V15.875H17.1875V17.9375C17.1875 18.211 17.2961 18.4733 17.4895 18.6667C17.6829 18.8601 17.9452 18.9688 18.2188 18.9688H19.25C19.5235 18.9688 19.7858 18.8601 19.9792 18.6667C20.1726 18.4733 20.2812 18.211 20.2812 17.9375V15.5893C20.5941 15.4099 20.8542 15.1512 21.0352 14.8393C21.2163 14.5273 21.3119 14.1732 21.3125 13.8125V8.65625C21.3125 8.24959 21.1923 7.852 20.967 7.51347C20.7416 7.17493 20.4213 6.91057 20.0461 6.75359ZM6.29853 2.46875H15.7004C16.1449 2.46875 16.5388 2.75131 16.6791 3.17413L17.8197 6.59375H4.18034L5.31988 3.17413C5.3883 2.9687 5.51965 2.79001 5.6953 2.66341C5.87096 2.5368 6.08201 2.4687 6.29853 2.46875ZM4.29688 12.7812C4.09367 12.7812 3.89247 12.7411 3.70475 12.6633C3.51704 12.5854 3.3465 12.4714 3.20286 12.3277C3.05921 12.1839 2.94529 12.0133 2.86759 11.8255C2.78989 11.6378 2.74993 11.4365 2.75 11.2333C2.75007 11.0301 2.79016 10.8289 2.86799 10.6412C2.94581 10.4535 3.05985 10.283 3.20358 10.1393C3.34732 9.99568 3.51794 9.88176 3.70571 9.80406C3.89347 9.72636 4.0947 9.6864 4.29791 9.68647C4.7083 9.6866 5.10183 9.84977 5.39193 10.1401C5.68202 10.4303 5.84492 10.824 5.84478 11.2344C5.84464 11.6448 5.68148 12.0383 5.3912 12.3284C5.10091 12.6185 4.70727 12.7814 4.29688 12.7812ZM17.7031 12.7812C17.4999 12.7812 17.2987 12.7411 17.111 12.6633C16.9233 12.5854 16.7527 12.4714 16.6091 12.3277C16.4655 12.1839 16.3515 12.0133 16.2738 11.8255C16.1961 11.6378 16.1562 11.4365 16.1562 11.2333C16.1563 11.0301 16.1964 10.8289 16.2742 10.6412C16.3521 10.4535 16.4661 10.283 16.6098 10.1393C16.7536 9.99568 16.9242 9.88176 17.112 9.80406C17.2997 9.72636 17.5009 9.6864 17.7042 9.68647C18.1145 9.6866 18.5081 9.84977 18.7982 10.1401C19.0883 10.4303 19.2512 10.824 19.251 11.2344C19.2509 11.6448 19.0877 12.0383 18.7974 12.3284C18.5072 12.6185 18.1135 12.7814 17.7031 12.7812Z" fill="#39A6DC"/>
</svg>
